<?xml version="1.0" encoding="UTF-8" standalone="no"?>
<!-- Created with Inkscape (http://www.inkscape.org/) -->

<svg
   xmlns:dc="http://purl.org/dc/elements/1.1/"
   xmlns:cc="http://creativecommons.org/ns#"
   xmlns:rdf="http://www.w3.org/1999/02/22-rdf-syntax-ns#"
   xmlns:svg="http://www.w3.org/2000/svg"
   xmlns="http://www.w3.org/2000/svg"
   xmlns:sodipodi="http://sodipodi.sourceforge.net/DTD/sodipodi-0.dtd"
   xmlns:inkscape="http://www.inkscape.org/namespaces/inkscape"
   width="210mm"
   height="210mm"
   viewBox="0 0 210 210"
   version="1.1"
   id="svg8"
   sodipodi:docname="trailmarker-logo.svg"
   inkscape:version="0.92.4 (5da689c313, 2019-01-14)"
   inkscape:export-filename="C:\Users\tflyn\dev\trm\gatsby-theme-forty\src\assets\images\trailmarker-logo.png"
   inkscape:export-xdpi="96"
   inkscape:export-ydpi="96">
  <defs
     id="defs2" />
  <sodipodi:namedview
     id="base"
     pagecolor="#ffffff"
     bordercolor="#666666"
     borderopacity="1.0"
     inkscape:pageopacity="0.0"
     inkscape:pageshadow="2"
     inkscape:zoom="2.8284271"
     inkscape:cx="412.75588"
     inkscape:cy="651.69387"
     inkscape:document-units="mm"
     inkscape:current-layer="layer1"
     showgrid="false"
     inkscape:window-width="3840"
     inkscape:window-height="2004"
     inkscape:window-x="-16"
     inkscape:window-y="-16"
     inkscape:window-maximized="1" />
  <metadata
     id="metadata5">
    <rdf:RDF>
      <cc:Work
         rdf:about="">
        <dc:format>image/svg+xml</dc:format>
        <dc:type
           rdf:resource="http://purl.org/dc/dcmitype/StillImage" />
        <dc:title />
      </cc:Work>
    </rdf:RDF>
  </metadata>
  <g
     inkscape:label="Layer 1"
     inkscape:groupmode="layer"
     id="layer1"
     transform="translate(0,-87)">
    <path
       d="m 97.646042,255.04838 c 0,0 17.471918,0 17.471918,0 0,0 -1.21244,-131.6793 -1.21244,-131.6793 0,0 -8.21271,-22.18267 -8.21271,-22.18267 0,0 -9.228718,22.18267 -9.228718,22.18267 0,0 1.18195,131.6793 1.18195,131.6793 z"
       id="Post"
       inkscape:connector-curvature="0"
       style="fill:#b69025;fill-opacity:1;stroke:#5b1819;stroke-width:1.58749998;stroke-miterlimit:4;stroke-dasharray:none;stroke-opacity:1" />
    <path
       d="m 112.10484,277.10643 7.70844,-2.18946 c -0.20405,1.13707 24.77242,10.01943 29.14209,9.5834 4.17917,-0.28448 9.8197,-11.46472 7.50913,-13.45862 -0.21895,0.3948 -10.24492,-10.90644 -9.35741,-8.72236 -0.14393,0.55288 -2.3275,-3.72364 -10.72479,-6.67512 -5.23158,-3.73888 -10.53005,-7.8486 -11.10834,-8.92133 -1.11167,-0.53001 -0.48937,-7.25678 0.92373,-6.41181 1.67895,1.71281 11.56807,-20.51304 9.81969,-22.29612 -1.73314,-8.3185 3.12845,-21.8965 4.50514,-22.00826 -0.73322,-0.38015 3.13184,-4.61941 4.33242,-4.56353 -1.10151,-0.78063 -6.24505,-6.4406 -5.45765,-8.6631 0.0474,-1.77715 4.24691,-5.75818 6.93086,-5.02581 3.1039,0.83566 4.62368,26.97565 3.72451,27.95694 0.083,2.52899 6.18748,1.68994 6.12313,-0.28872 2.57473,0.45551 6.86058,-32.96327 1.84829,-33.84973 1.61375,-2.45277 -13.61279,-11.69073 -16.51942,-7.79776 0.72306,-0.87715 1.98206,-14.42636 -3.639,-14.44075 l -1.0397,-3.23511 c -1.53079,-1.76446 -21.62569,-4.41114 -20.5047,-3.11912 1.52909,-2.16408 -15.82769,-3.8862 -16.981698,-2.25298 -3.16486,-3.26306 -23.332506,-0.84074 -20.331919,2.25298 -3.253741,-1.005 -11.212409,5.3721 -8.779089,6.12309 -1.398693,-1.17771 -10.855962,25.74794 -6.584528,29.34373 l -4.043681,16.1163 c -1.278467,0.0364 -1.098708,19.77322 1.241476,19.70634 -1.181947,-1.19888 -11.717869,8.636 -10.275996,10.09735 l -5.650916,-2.69849 c -7.548035,-4.93438 -26.758906,18.8595 -16.122231,25.81318 -0.63246,1.08288 12.955697,7.93496 13.73971,6.59214 -1.438487,2.66277 26.339806,18.04163 27.16192,16.52017 -0.0635,0.74506 12.631422,8.37777 14.216383,7.06882 -0.05165,0.44789 12.213211,9.4996 11.356384,7.94258 6.691245,0.58589 15.777725,-10.26668 16.837765,-8.49884 z"
       id="Backpack"
       inkscape:connector-curvature="0"
       style="opacity:1;vector-effect:none;fill:#bcab6d;fill-opacity:1;stroke:#333333;stroke-width:1.58749998;stroke-linecap:butt;stroke-linejoin:round;stroke-miterlimit:4;stroke-dasharray:none;stroke-dashoffset:0;stroke-opacity:1"
       sodipodi:nodetypes="cccccccccccccccccccccccccccccccccc" />
    <path
       d="m 27.589953,247.62566 c -0.642875,1.12571 13.169048,8.24884 13.965972,6.8529 -1.462175,2.7681 26.773564,18.75529 27.609216,17.17365 -0.06455,0.77453 12.83944,8.70917 14.450503,7.34844 -0.0525,0.4656 12.414328,9.87537 11.543391,8.25676 12.886835,10.98878 31.205875,-19.58352 21.312245,-29.72382 0.40363,-1.11076 -14.73113,-8.15554 -14.93424,-7.59664 0.73067,-1.01923 -23.205542,-11.82316 -23.573023,-11.31091 0.547349,-0.58971 -18.928251,-10.89196 -20.584924,-10.73441 0,0 -13.401412,-7.10023 -13.401412,-7.10023 -7.672334,-5.12957 -27.199566,19.60551 -16.387728,26.83426 z"
       id="Bedroll"
       inkscape:connector-curvature="0"
       style="fill:#5b1819;fill-opacity:1;stroke:#333333;stroke-width:1.58749998;stroke-miterlimit:4;stroke-dasharray:none;stroke-opacity:1" />
    <path
       d="m 98.70498,124.20057 c 0,0 7.40838,-1.31233 7.40838,-1.31233 1.79748,-0.62315 -3.82611,-1.39277 -4.61436,-1.73567 -1.19635,-0.4064 -1.14724,-2.82871 -0.0847,-3.25967 0,0 3.04801,-1.27 3.04801,-1.27 -0.56134,-0.002 -2.11667,-5.68706 0.76201,-5.67266 0.26924,-0.59775 1.74753,0.8619 1.35467,2.286 -0.43857,1.10066 -0.42757,3.08525 1.35468,3.38666 1.9575,0.91948 -1.60868,2.67124 -2.97859,2.7322 -0.24215,0.0948 0.0999,0.50207 0.14224,0.48514 0,0 5.2917,1.10067 5.2917,1.10067 2.03963,0.44196 1.12354,3.07848 -0.67734,3.38666 0.0474,0.0212 -8.30331,1.08797 -11.00673,-0.127 z"
       id="Trailmarker"
       inkscape:connector-curvature="0"
       style="fill:#333333;fill-opacity:1;stroke:#000000;stroke-width:0.08466668" />
    <path
       id="Straps"
       style="fill:#333333;fill-opacity:1;stroke:none;stroke-width:0.08466667;stroke-miterlimit:4;stroke-dasharray:none;stroke-opacity:1"
       d="m 139.54003,179.62825 c -2.54171,-2.1099 14.8828,-14.02253 16.77934,-12.44857 l -6.00714,-3.20548 c -1.54941,-0.69258 -13.69491,5.86655 -10.85856,7.13401 l 0.0864,8.52004 z m -20.19739,84.2191 c 3.37568,1.39022 24.23429,3.36296 28.01383,1.47997 0.12447,0.45043 8.89514,-0.78909 9.64953,-2.14461 7.63274,-10.20151 22.66201,-3.51536 24.54077,1.78732 1.52401,3.45863 3.29197,7.44043 2.08632,8.5775 -0.58882,0.81912 -8.37026,0.89208 -8.39312,0.0259 1.11761,-0.26839 0.93552,-7.739 -2.90583,-6.81613 0.63077,2.30039 -36.05213,10.14887 -36.49325,8.53936 l -18.00024,-1.976 c 0.71544,0.26162 2.85498,-8.97721 1.50199,-9.47335 z m 8.96882,-27.59285 -3.51453,7.22803 c 18.57005,-4.99959 33.31739,-36.57536 30.97379,-38.74623 l -4.34172,0.95251 c 5.53215,2.87784 -18.36009,33.04051 -23.11754,30.56569 z m -90.024566,18.09082 6.238204,3.4654 c -5.707347,-2.26144 4.290056,-32.98292 15.074898,-28.70808 -0.819573,-0.59605 4.774355,-5.3281 5.747175,-4.62113 -1.274234,1.08035 16.907937,9.18216 21.169211,8.23134 -2.628054,0.20235 -8.068735,6.22304 -6.410961,6.75813 -14.513564,0.64433 -16.429571,32.84399 -11.021909,32.60439 l 6.274648,3.57378 c -8.155942,-3.90398 2.263987,-37.71403 12.111569,-33.00061 -2.27584,-0.93049 5.462716,-8.80115 7.465096,-7.98242 -0.0525,0.17781 7.355875,0.27772 7.426155,0.0398 0.13716,0.0152 0.78655,-7.90621 0.11853,-7.98241 -0.13716,0.45974 -5.129138,0.3302 -5.042778,0.0398 -0.54695,-0.0229 -1.07019,-23.51799 -0.87376,-23.51037 -0.083,1.03462 21.800998,-0.0828 21.829788,-0.44348 -0.80603,-0.0525 2.01841,-7.47122 2.722,-7.84036 -0.78995,0.28448 -24.213968,2.15308 -24.114908,0.23622 -1.234447,-0.044 1.35976,-15.29344 3.663548,-18.01802 -1.573958,0.41825 -7.606495,-0.94066 -7.475255,-1.78563 -1.12862,-0.13123 -5.494896,17.73862 -4.13007,17.89694 -6.6548,0.82804 -20.398744,-8.73003 -16.519316,-7.94263 -1.138767,-0.0864 1.397363,-10.84747 2.435014,-11.43683 -1.507039,0.68064 -6.877475,-1.05242 -6.670888,-2.01253 -1.331807,0.0305 -3.653368,13.25632 -2.859194,13.23769 -1.159087,0.1668 -5.487248,31.35141 -2.782148,30.9611 -2.95148,-0.96437 -11.816929,8.52937 -10.165928,9.06954 -9.861958,-2.54932 -21.279202,27.6396 -14.237511,29.4591"
       inkscape:connector-curvature="0"
       sodipodi:nodetypes="cccccccccccccccccccccccccccccccccccccccccccccccc" />
    <path
       style="fill:#bcab6d;fill-opacity:1;stroke:#000000;stroke-width:0.08466667;stroke-miterlimit:4;stroke-dasharray:none;stroke-opacity:1"
       d="m 89.176615,226.64393 c 1.00584,0.44535 0.30226,-24.50606 -0.31751,-24.78039 0,0 -1.429169,-0.71459 -1.429169,-0.71459 -8.205049,-3.27915 -6.977382,19.25755 -4.884421,20.09406 0,0 -1.905848,-0.39709 -1.905848,-0.39709 -2.495127,-0.1143 -13.627103,-23.33258 0.754381,-22.67556 -0.923714,-0.18542 -12.05315,-4.44164 -11.23781,-4.96403 0,0 -2.661073,25.81248 -2.661073,25.81248 -0.647701,2.38168 21.077773,9.84594 21.68145,7.62512 z"
       id="path4688"
       inkscape:connector-curvature="0" />
    <path
       d="m 95.839725,281.79373 c -8.951797,-4.39592 8.139005,-26.39922 16.552335,-22.26747 9.77646,10.70364 -4.96909,31.41999 -14.605008,20.87046 m 2.963338,-2.70934 c -3.029378,-5.45427 8.21521,-14.99117 9.86367,-12.02274 3.44085,3.6754 -3.94124,13.22162 -6.68867,10.28706 m 28.9577,-22.00077 c 0.0677,1.20905 -14.26972,10.69177 -14.40095,8.33972 m -7.22716,-7.14845 c -0.63584,-3.5738 9.84759,-9.53099 14.37472,-11.91352 -11.19802,3.85236 -61.812463,-4.25113 -59.763542,-14.21731 m 58.016022,-5.13591 c -4.7007,-0.30649 6.18151,-24.60937 10.06009,-24.35705 3.37566,-0.0364 12.97687,-7.64714 10.90677,-7.62513 m -45.004588,37.7006 c 0.206588,1.18958 20.537608,-20.22613 18.955188,-29.33379 -1.27085,-4.66008 12.21401,-19.13647 19.59017,-19.80366 0.25146,0.51648 3.02938,-7.05192 2.64753,-7.83678 0.11515,-2.75928 -27.22119,9.05599 -27.32025,11.43768 -0.0262,1.90416 -32.757489,-1.94396 -32.721079,-4.55424 -7.663148,-1.40379 -22.269754,4.94455 -16.307557,6.03676 m 12.918365,-7.41345 c -5.05288,-3.23175 29.114261,-36.69626 36.321941,-32.08701 m -49.346146,35.26457 c -7.890885,-1.26493 9.194749,-36.18151 23.507578,-33.88788 m 68.724788,90.43793"
       id="Trimming"
       inkscape:connector-curvature="0"
       style="fill:none;stroke:#333333;stroke-width:1.58749998;stroke-miterlimit:4;stroke-dasharray:none;stroke-opacity:1" />
  </g>
</svg>
